<svg width="24" height="24" fill="none" xmlns="http://www.w3.org/2000/svg"><style>@media (prefers-color-scheme:dark){path{fill:#fff}}</style><path d="M6.507 4.51a.68.68 0 0 0-.994-.12A10.5 10.5 0 0 0 4.356 5.59a.68.68 0 0 0 .133.974c.32.24.773.17 1.032-.136.27-.32.56-.621.87-.902.29-.262.35-.703.116-1.016zm-2.85 5.548c.093-.39-.113-.8-.494-.92-.37-.116-.767.08-.866.454a8.935 8.935 0 0 0-.278 1.7c-.026.393.297.708.69.708.397 0 .716-.323.75-.719a8.2 8.2 0 0 1 .197-1.223zm-.464 4.867a.677.677 0 0 0-.439.898c.215.52.472 1.023.77 1.5.21.341.668.409.988.169.312-.234.377-.672.175-1.005a9.211 9.211 0 0 1-.578-1.122c-.153-.357-.546-.557-.916-.44zm3.388 4.564c-.24.32-.173.777.167.988.479.298.98.555 1.5.77.37.152.78-.059.9-.44.117-.37-.084-.762-.44-.915a9.217 9.217 0 0 1-1.123-.578c-.333-.202-.77-.137-1.004.175zM9.592 2.297c-.373.1-.57.497-.454.866.12.381.53.587.92.493a8.2 8.2 0 0 1 1.223-.197c.396-.034.72-.353.72-.75 0-.393-.316-.716-.708-.69a8.935 8.935 0 0 0-1.7.278zm7.843 17.211a.672.672 0 0 0 .973.125c.44-.375.85-.785 1.224-1.225a.672.672 0 0 0-.124-.973c-.318-.238-.767-.166-1.025.136-.28.327-.585.632-.912.912-.302.258-.375.707-.136 1.025zm2.907-5.554c-.093.383.11.787.485.905a.67.67 0 0 0 .862-.467c.134-.55.225-1.109.273-1.672a.672.672 0 0 0-.682-.72c-.391 0-.704.318-.737.708a8.21 8.21 0 0 1-.201 1.246zm.394-4.878c.38-.12.592-.53.44-.899a10.28 10.28 0 0 0-.77-1.5c-.211-.34-.668-.408-.989-.168-.311.234-.376.672-.175 1.005.218.36.411.735.578 1.122.154.356.546.557.916.44zM17.35 4.441c.24-.32.172-.778-.168-.99-.478-.296-.98-.553-1.5-.768-.37-.153-.78.058-.9.439-.116.37.085.762.44.916.388.167.763.36 1.123.578.333.201.771.136 1.005-.175zm-2.977 17.23a.666.666 0 0 0 .483-.858c-.116-.368-.512-.566-.887-.474-.419.102-.845.17-1.274.205-.382.032-.694.339-.694.722 0 .398.336.716.732.673.551-.06 1.099-.15 1.64-.268z" fill="#000"/></svg>